<?xml version="1.0" encoding="utf-8" ?>
<svg xmlns="http://www.w3.org/2000/svg" xmlns:xlink="http://www.w3.org/1999/xlink" width="512" height="511">
	<path fill="white" d="M115.718 109.613L116.371 109.596L180.22 109.63L307.905 109.558L370.324 109.563L389.272 109.574C393.476 109.58 397.859 109.399 402.03 109.956C408.153 110.774 413.935 113.634 418.329 117.961C422.658 122.225 425.717 128.519 426.599 134.503C427.065 137.667 426.923 140.807 426.859 143.991L426.794 154.625L427.046 199.274L427.095 352.767C429.612 353.476 433.2 352.849 435.845 352.776C436.117 355.709 435.957 358.771 435.952 361.717C435.936 369.792 436.327 378.567 432.267 385.842L432.036 386.25C430.859 388.382 429.401 390.252 427.686 391.983C424.028 395.674 419.702 398.206 414.613 399.327C408.756 400.616 402.119 400.053 396.138 400.063L101.57 399.929C94.3548 399.366 88.0026 396.35 83.3081 390.759C80.6482 387.591 78.2547 383.689 77.2738 379.625C76.2189 375.255 76.3946 370.482 76.3679 366.019C76.3421 361.708 76.2523 357.341 76.6483 353.044C79.1081 352.689 81.5844 352.939 84.0611 352.996C84.7294 351.954 84.7283 350.012 84.7741 348.802L84.8801 328.71L84.8732 294.141L84.628 175.667L84.6087 150.405C84.6039 145.627 84.2788 140.541 84.8964 135.806C85.6623 129.933 88.0094 124.235 92.0248 119.821C96.5251 114.874 102.287 111.463 108.876 110.217C111.123 109.792 113.439 109.721 115.718 109.613ZM114.592 132.345C111.402 132.665 108.993 133.137 106.903 135.768C105.526 137.501 104.897 140.089 104.722 142.269C104.183 148.987 104.616 156.041 104.635 162.791L104.653 199.847L104.655 300.004L104.602 337.397L104.639 351.292L216.028 351.322C216.049 356.139 215.967 362.382 219.625 366.035C220.793 367.202 222.17 367.537 223.75 367.77L224.186 367.839C228.015 368.398 232.199 368.116 236.071 368.116L256.306 368.109L275.542 368.13C279.518 368.146 283.667 368.375 287.625 367.949C289.03 367.798 290.354 367.201 291.494 366.376C294.196 364.419 295.31 361.317 295.72 358.125L296.062 351.392L378.938 351.362L398.401 351.343C401.205 351.345 404.263 351.705 407.022 351.326L407.052 212.441L407.042 166.924L407.035 152.284C407.031 149.293 407.14 146.237 406.892 143.254C406.641 140.236 406.23 137.268 403.935 135.06C402.096 133.291 399.604 132.435 397.097 132.246C393.346 131.962 389.407 132.279 385.636 132.28L361.877 132.228L283.134 132.139L173.445 132.173L134.642 132.212L114.904 132.327L114.592 132.345Z"/>
	<path fill="rgb(10, 60, 126)" d="M123.608 152.343L387.432 152.368L387.899 152.326L387.909 204.061L387.902 297.615L387.9 320.293L387.896 326.47C387.893 327.524 388.006 328.763 387.625 329.754L386.875 329.986L123.583 330.143L123.608 152.343ZM255.816 189.125L232.992 235.937L203.926 206.115C203.234 207.292 203.727 220.381 203.717 222.767L203.504 243.308C203.569 245.31 203.469 247.618 203.878 249.561C204.007 250.171 204.261 250.641 204.734 251.053C205.741 251.929 206.92 252.623 207.945 253.487L232.742 274.359L245.595 285.197L252.288 290.817C253.453 291.768 254.576 292.833 255.875 293.597C256.601 293.496 256.951 293.171 257.503 292.736L266.32 285.292L291.025 264.546L302.678 254.79C304.553 253.19 306.583 251.704 308.217 249.851C308.667 247.165 308.457 244.333 308.433 241.616L308.343 228.237C308.377 221.07 309.156 213.704 308.544 206.565C304.561 209.555 301.179 213.486 297.621 216.966L278.88 235.27L273.951 225.762L263.409 203.357L258.938 194.011C258.188 192.47 257.427 190.326 256.145 189.161L255.816 189.125Z"/>
</svg>
